<?xml version="1.0" encoding="utf-8"?>
<!-- Generator: Adobe Illustrator 22.1.0, SVG Export Plug-In . SVG Version: 6.00 Build 0)  -->
<svg version="1.1" id="レイヤー_1" xmlns="http://www.w3.org/2000/svg" xmlns:xlink="http://www.w3.org/1999/xlink" x="0px"
	 y="0px" viewBox="0 0 300 120" style="enable-background:new 0 0 300 120;" xml:space="preserve">
<g>
	<path d="M44.5,98.8c-0.1-0.1-0.1-0.1-0.2-0.2c-0.2-0.1-0.4,0-0.6,0.1c-0.1,0.1-0.3,0.3-0.5,0.4c-0.2,0.1-0.3,0.2-0.5,0.3
		c-0.2,0.1-0.4,0.2-0.6,0.2c-0.6,0.2-1.3,0.1-1.8-0.2c-0.4-0.2-0.7-0.4-0.9-0.7c-0.3-0.3-0.5-0.6-0.6-1c-0.2-0.4-0.2-0.8-0.2-1.2
		c0-0.4,0.1-0.8,0.2-1.2c0.2-0.4,0.4-0.7,0.6-1c0.3-0.3,0.6-0.5,0.9-0.7c0.4-0.2,0.8-0.2,1.2-0.2c0.4,0,0.8,0.1,1.2,0.2
		c0.4,0.2,0.7,0.4,1,0.7c0.2,0.2,0.5,0.3,0.7,0.1c0,0,0.1-0.1,0.2-0.2l0.2-0.2c0.1-0.1,0.1-0.2,0.1-0.3c0-0.1,0-0.2-0.1-0.4
		c-0.1-0.1-0.1-0.1-0.2-0.2c-0.4-0.4-0.9-0.6-1.4-0.8c-1-0.4-2.4-0.4-3.4,0.1c-0.5,0.2-1,0.6-1.4,1c-0.4,0.4-0.7,0.9-0.9,1.5
		C37.1,95.4,37,96,37,96.6c0,0.6,0.1,1.2,0.3,1.8c0.2,0.6,0.5,1,0.9,1.5c0.4,0.4,0.9,0.7,1.4,1c0.5,0.2,1.1,0.4,1.8,0.4
		c0.6,0,1.2-0.1,1.7-0.3c0.5-0.2,1-0.5,1.4-0.9c0.1-0.1,0.1-0.2,0.2-0.2c0.1-0.1,0.1-0.2,0.1-0.3c0-0.1,0-0.2-0.1-0.3L44.5,98.8z"/>
	<path d="M55.4,92.2h-0.3c-0.3,0-0.6,0.2-0.6,0.6v4.8c0,0.3-0.1,0.6-0.2,0.9c-0.1,0.3-0.3,0.5-0.5,0.7c-0.2,0.2-0.5,0.4-0.8,0.5
		c-0.6,0.2-1.3,0.2-1.9,0c-0.3-0.1-0.5-0.3-0.7-0.5c-0.2-0.2-0.4-0.5-0.5-0.7c-0.1-0.3-0.2-0.6-0.2-0.9v-4.7c0-0.2,0-0.3-0.1-0.4
		c-0.1-0.1-0.2-0.2-0.4-0.2H49c-0.2,0-0.3,0.1-0.4,0.2c-0.1,0.1-0.2,0.2-0.2,0.4v4.7c0,0.5,0.1,1,0.3,1.5c0.2,0.5,0.4,0.9,0.8,1.2
		c0.3,0.3,0.7,0.6,1.1,0.8c0.4,0.2,0.9,0.3,1.4,0.3c0.3,0,0.6,0,0.9-0.1c0.3-0.1,0.6-0.2,0.8-0.3c0.2-0.1,0.5-0.3,0.7-0.5
		c0,0,0.1-0.1,0.1-0.1c0,0.1,0,0.2,0,0.3c0,0.1,0.1,0.3,0.1,0.4c0.1,0.1,0.2,0.2,0.4,0.2h0.3c0.2,0,0.3-0.1,0.4-0.2
		c0.1-0.1,0.2-0.2,0.2-0.4v-7.7C56,92.4,55.7,92.2,55.4,92.2z"/>
	<path d="M65.5,96.8c-0.3-0.2-0.5-0.4-0.9-0.6c-0.3-0.2-0.7-0.3-1.2-0.4l-0.3-0.1c-0.2,0-0.3-0.1-0.5-0.2c-0.2-0.1-0.3-0.1-0.5-0.2
		c-0.1-0.1-0.2-0.2-0.3-0.3c-0.1-0.1-0.1-0.3-0.1-0.4c0-0.2,0-0.3,0.1-0.5c0.1-0.1,0.2-0.3,0.3-0.4s0.3-0.2,0.5-0.2
		c0.2-0.1,0.4-0.1,0.6-0.1c0.3,0,0.7,0.1,0.9,0.2c0.1,0.1,0.3,0.2,0.4,0.3l0.3,0.4c0.1,0.1,0.1,0.1,0.1,0.2c0.1,0.2,0.4,0.2,0.6,0
		l0.3-0.2c0.1-0.1,0.1-0.1,0.2-0.2c0-0.1,0.1-0.2,0.1-0.2c0-0.1,0-0.2-0.1-0.3c-0.3-0.6-0.7-1-1.2-1.2c-0.5-0.3-1-0.4-1.6-0.4
		c-0.4,0-0.8,0.1-1.1,0.2c-0.4,0.1-0.7,0.3-0.9,0.5c-0.3,0.2-0.4,0.5-0.6,0.8c-0.1,0.3-0.2,0.7-0.2,1c0,0.3,0.1,0.6,0.2,0.9
		c0.2,0.3,0.4,0.5,0.6,0.7c0.3,0.2,0.5,0.4,0.8,0.5c0.3,0.1,0.6,0.3,0.9,0.4c0.2,0.1,0.5,0.1,0.7,0.2c0.2,0.1,0.4,0.2,0.6,0.3
		c0.2,0.1,0.3,0.3,0.4,0.4c0.1,0.1,0.2,0.3,0.2,0.5c0,0.2-0.1,0.4-0.2,0.5c-0.1,0.2-0.3,0.3-0.4,0.4c-0.2,0.1-0.4,0.2-0.6,0.2
		c-0.4,0.1-0.6,0.1-1,0c-0.2,0-0.3-0.1-0.5-0.2c-0.2-0.1-0.3-0.2-0.4-0.3c-0.1-0.1-0.2-0.3-0.3-0.4l0-0.1c0-0.1-0.1-0.1-0.2-0.2
		c-0.1-0.1-0.3-0.2-0.5-0.1l-0.3,0.1c-0.1,0-0.2,0.1-0.2,0.2C60.1,98.9,60,99,60,99.1c0,0.1,0,0.1,0,0.2c0.1,0.3,0.3,0.6,0.5,0.8
		c0.2,0.2,0.4,0.4,0.7,0.6c0.3,0.2,0.6,0.3,0.9,0.4c0.3,0.1,0.7,0.1,1,0.1c0.4,0,0.8-0.1,1.2-0.2c0.4-0.1,0.7-0.3,1-0.5
		c0.3-0.2,0.5-0.5,0.7-0.8c0.2-0.3,0.3-0.7,0.3-1.1c0-0.3-0.1-0.7-0.2-0.9C65.9,97.3,65.7,97.1,65.5,96.8z"/>
	<path d="M73.7,92.2h-1.2v-2.3c0-0.1,0-0.3-0.1-0.4c0-0.1-0.2-0.2-0.5-0.2h0l-0.4,0.1c-0.3,0-0.5,0.2-0.5,0.5v2.3h-0.9
		c-0.2,0-0.3,0-0.4,0.1c-0.1,0.1-0.2,0.2-0.2,0.4v0.3c0,0.2,0.1,0.3,0.2,0.4c0.1,0.1,0.3,0.1,0.4,0.1H71v5.2c0,0.5,0.1,0.9,0.2,1.2
		c0.1,0.3,0.3,0.6,0.5,0.7c0.2,0.2,0.5,0.3,0.8,0.3c0.2,0,0.5,0.1,0.8,0.1h0.3c0.2,0,0.3,0,0.4-0.1c0.1-0.1,0.2-0.2,0.2-0.5v-0.3
		c0-0.2-0.1-0.4-0.2-0.4c-0.1-0.1-0.2-0.1-0.4-0.1h-0.3c-0.2,0-0.3,0-0.4-0.1c-0.1,0-0.2-0.1-0.2-0.1c0,0-0.1-0.1-0.1-0.3
		c0-0.1-0.1-0.4-0.1-0.6v-5h1.2c0.2,0,0.3,0,0.4-0.1c0.1-0.1,0.2-0.2,0.2-0.4v-0.3c0-0.2-0.1-0.3-0.2-0.4
		C74,92.2,73.9,92.2,73.7,92.2z"/>
	<path d="M85.5,93.4c-0.4-0.4-0.9-0.7-1.5-1c-1.1-0.5-2.5-0.5-3.6,0c-0.6,0.2-1,0.6-1.5,1c-0.4,0.4-0.7,0.9-1,1.5
		c-0.2,0.6-0.4,1.2-0.4,1.8c0,0.6,0.1,1.2,0.4,1.8c0.2,0.6,0.6,1,1,1.5c0.4,0.4,0.9,0.7,1.5,1c0.6,0.2,1.2,0.4,1.8,0.4
		c0.6,0,1.2-0.1,1.8-0.4c0.6-0.2,1-0.6,1.5-1c0.4-0.4,0.7-0.9,1-1.5c0.2-0.6,0.4-1.2,0.4-1.8c0-0.6-0.1-1.2-0.4-1.8
		C86.2,94.3,85.9,93.8,85.5,93.4z M85.4,96.6c0,0.4-0.1,0.9-0.3,1.2c-0.2,0.4-0.4,0.7-0.7,1c-0.3,0.3-0.6,0.5-1,0.7
		c-0.8,0.3-1.7,0.3-2.5,0c-0.4-0.2-0.7-0.4-1-0.7c-0.3-0.3-0.5-0.6-0.7-1c-0.2-0.4-0.3-0.8-0.3-1.2s0.1-0.9,0.3-1.2
		c0.2-0.4,0.4-0.7,0.7-1c0.3-0.3,0.6-0.5,1-0.7c0.4-0.2,0.8-0.3,1.2-0.3c0.4,0,0.8,0.1,1.2,0.3c0.4,0.2,0.7,0.4,1,0.7
		c0.3,0.3,0.5,0.6,0.7,1C85.3,95.8,85.4,96.2,85.4,96.6z"/>
	<path d="M102.8,93.9c-0.2-0.4-0.4-0.7-0.7-0.9c-0.3-0.3-0.6-0.5-1-0.6c-0.7-0.3-1.5-0.3-2.2-0.1c-0.3,0.1-0.6,0.2-0.8,0.4
		c-0.2,0.2-0.5,0.4-0.6,0.6c-0.1,0.1-0.2,0.2-0.3,0.4c-0.1-0.1-0.2-0.2-0.3-0.4c-0.2-0.2-0.4-0.4-0.7-0.6c-0.2-0.2-0.5-0.3-0.8-0.4
		c-0.6-0.2-1.3-0.2-1.8,0c-0.2,0.1-0.5,0.2-0.7,0.3c-0.2,0.1-0.4,0.3-0.6,0.4c0,0,0,0,0,0l0-0.4c0-0.2-0.2-0.4-0.4-0.4h-0.5
		c-0.2,0-0.3,0.1-0.4,0.2c-0.1,0.1-0.1,0.2-0.1,0.4v7.8c0,0.3,0.2,0.5,0.6,0.5h0.3c0.3,0,0.5-0.2,0.5-0.5v-4.9
		c0-0.3,0.1-0.5,0.2-0.8c0.1-0.2,0.2-0.5,0.4-0.6c0.2-0.2,0.4-0.3,0.6-0.4c0.5-0.2,1.1-0.2,1.5,0c0.2,0.1,0.4,0.2,0.6,0.4
		c0.2,0.2,0.3,0.4,0.4,0.6c0.1,0.2,0.2,0.5,0.2,0.8v5c0,0.4,0.2,0.6,0.6,0.6h0.3c0.3,0,0.6-0.2,0.6-0.6v-4.5c0-0.1,0-0.3,0-0.4
		c0-0.1,0-0.3,0.1-0.4c0-0.2,0.1-0.4,0.2-0.6c0.1-0.2,0.3-0.4,0.4-0.5c0.2-0.1,0.4-0.3,0.6-0.3c0.5-0.2,1-0.2,1.4,0
		c0.2,0.1,0.4,0.2,0.6,0.4c0.2,0.2,0.3,0.4,0.4,0.6c0.1,0.2,0.1,0.5,0.2,0.8v4.9c0,0.4,0.2,0.6,0.6,0.6h0.3c0.2,0,0.3,0,0.4-0.1
		c0.1-0.1,0.2-0.2,0.2-0.4V96c0-0.3,0-0.6-0.1-0.9C103.1,94.6,103,94.2,102.8,93.9z"/>
	<path d="M113,95.4h-5.5c-0.3,0-0.6,0.2-0.6,0.5v0.4c0,0.3,0.2,0.6,0.6,0.6h5.5c0.2,0,0.3-0.1,0.4-0.2c0.1-0.1,0.2-0.2,0.2-0.4v-0.4
		c0-0.2-0.1-0.3-0.2-0.4C113.3,95.4,113.2,95.4,113,95.4z"/>
	<path d="M129.3,93.9c-0.2-0.4-0.4-0.7-0.7-0.9c-0.3-0.3-0.6-0.5-1-0.6c-0.7-0.3-1.5-0.3-2.2-0.1c-0.3,0.1-0.6,0.2-0.8,0.4
		c-0.2,0.2-0.5,0.4-0.6,0.6c-0.1,0.1-0.2,0.2-0.3,0.4c-0.1-0.1-0.2-0.2-0.3-0.4c-0.2-0.2-0.4-0.4-0.7-0.6c-0.2-0.2-0.5-0.3-0.8-0.4
		c-0.6-0.2-1.3-0.2-1.8,0c-0.2,0.1-0.5,0.2-0.7,0.3c-0.2,0.1-0.4,0.3-0.6,0.4c0,0,0,0,0,0l0-0.4c0-0.2-0.2-0.4-0.4-0.4h-0.5
		c-0.2,0-0.3,0.1-0.4,0.2c-0.1,0.1-0.1,0.2-0.1,0.4v7.8c0,0.3,0.2,0.5,0.6,0.5h0.3c0.3,0,0.5-0.2,0.5-0.5v-4.9
		c0-0.3,0.1-0.5,0.2-0.8c0.1-0.2,0.2-0.5,0.4-0.6c0.2-0.2,0.4-0.3,0.6-0.4c0.5-0.2,1.1-0.2,1.5,0c0.2,0.1,0.4,0.2,0.6,0.4
		c0.2,0.2,0.3,0.4,0.4,0.6c0.1,0.2,0.2,0.5,0.2,0.8v5c0,0.4,0.2,0.6,0.6,0.6h0.3c0.3,0,0.6-0.2,0.6-0.6v-4.5c0-0.1,0-0.3,0-0.4
		c0-0.1,0-0.3,0.1-0.4c0-0.2,0.1-0.4,0.2-0.6c0.1-0.2,0.3-0.4,0.4-0.5c0.2-0.1,0.4-0.3,0.6-0.3c0.5-0.2,1-0.2,1.4,0
		c0.2,0.1,0.4,0.2,0.6,0.4c0.2,0.2,0.3,0.4,0.4,0.6c0.1,0.2,0.1,0.5,0.2,0.8v4.9c0,0.4,0.2,0.6,0.6,0.6h0.3c0.2,0,0.3,0,0.4-0.1
		c0.1-0.1,0.2-0.2,0.2-0.4V96c0-0.3,0-0.6-0.1-0.9C129.6,94.6,129.5,94.2,129.3,93.9z"/>
	<path d="M141.7,92.2h-0.2c-0.2,0-0.3,0.1-0.4,0.2c-0.1,0.1-0.1,0.2-0.1,0.4l0,0.5c0,0,0,0,0,0c-0.2-0.3-0.5-0.5-0.8-0.7
		c-0.3-0.2-0.6-0.3-1-0.4c-0.9-0.3-2-0.2-2.9,0.2c-0.5,0.2-1,0.6-1.4,1c-0.4,0.4-0.7,0.9-0.9,1.5c-0.2,0.6-0.3,1.2-0.3,1.8
		s0.1,1.2,0.3,1.8c0.2,0.6,0.5,1,0.9,1.4c0.4,0.4,0.9,0.8,1.4,1c0.5,0.2,1.1,0.4,1.7,0.4c0.4,0,0.8,0,1.1-0.1c0.3-0.1,0.7-0.2,1-0.4
		c0.3-0.2,0.5-0.4,0.8-0.7c0,0,0,0,0,0v0.5c0,0.4,0.2,0.6,0.6,0.6h0.3c0.2,0,0.3,0,0.4-0.1c0.1-0.1,0.2-0.2,0.2-0.4v-7.7
		c0-0.2-0.1-0.4-0.2-0.4C142,92.3,141.9,92.2,141.7,92.2z M140.9,96.6c0,0.4-0.1,0.9-0.2,1.2c-0.1,0.4-0.3,0.7-0.6,1
		c-0.3,0.3-0.5,0.5-0.9,0.7c-0.7,0.3-1.6,0.3-2.3,0c-0.4-0.2-0.7-0.4-0.9-0.7c-0.3-0.3-0.5-0.6-0.6-1c-0.1-0.4-0.2-0.8-0.2-1.2
		s0.1-0.9,0.2-1.2c0.1-0.4,0.3-0.7,0.6-1c0.3-0.3,0.6-0.5,0.9-0.7c0.4-0.2,0.7-0.3,1.2-0.3c0.4,0,0.8,0.1,1.2,0.2
		c0.4,0.2,0.7,0.4,0.9,0.7c0.3,0.3,0.4,0.6,0.6,1C140.8,95.8,140.9,96.2,140.9,96.6z"/>
	<path d="M154.2,87.9H154c-0.2,0-0.4,0.1-0.4,0.2c-0.1,0.1-0.2,0.2-0.2,0.4v4.9c0,0,0-0.1-0.1-0.1c-0.2-0.3-0.5-0.5-0.7-0.7
		c-0.3-0.2-0.6-0.3-0.9-0.5c-0.3-0.1-0.7-0.2-1.1-0.2c-0.6,0-1.1,0.1-1.7,0.4c-0.5,0.2-1,0.6-1.3,1c-0.4,0.4-0.7,0.9-0.9,1.5
		c-0.2,0.6-0.3,1.2-0.3,1.8c0,0.6,0.1,1.2,0.3,1.8c0.2,0.6,0.5,1,0.9,1.5c0.4,0.4,0.8,0.7,1.3,1c0.5,0.2,1.1,0.4,1.7,0.4
		c0.5,0,1-0.1,1.4-0.2c0.4-0.1,0.7-0.3,1-0.5c0.2-0.2,0.4-0.3,0.5-0.5v0.3c0,0.4,0.2,0.6,0.6,0.6h0.3c0.4,0,0.6-0.2,0.6-0.6V88.5
		c0-0.2-0.1-0.3-0.2-0.4C154.6,88,154.4,87.9,154.2,87.9z M153.5,96.6c0,0.4-0.1,0.8-0.2,1.2c-0.2,0.4-0.4,0.7-0.6,1
		c-0.3,0.3-0.6,0.5-0.9,0.7c-0.7,0.3-1.5,0.3-2.2,0c-0.3-0.2-0.7-0.4-0.9-0.7c-0.3-0.3-0.5-0.6-0.6-1c-0.2-0.4-0.2-0.8-0.2-1.2
		c0-0.4,0.1-0.8,0.2-1.2c0.2-0.4,0.4-0.7,0.6-1c0.3-0.3,0.6-0.5,0.9-0.7c0.3-0.2,0.7-0.2,1.1-0.2s0.8,0.1,1.1,0.2
		c0.4,0.2,0.7,0.4,0.9,0.7c0.3,0.3,0.5,0.6,0.6,1C153.4,95.8,153.5,96.2,153.5,96.6z"/>
	<path d="M166.7,93.3c-0.4-0.4-0.9-0.7-1.4-0.9c-1.1-0.5-2.3-0.4-3.4,0c-0.5,0.2-1,0.6-1.4,1c-0.4,0.4-0.7,0.9-0.9,1.5
		c-0.2,0.6-0.3,1.2-0.3,1.8c0,0.6,0.1,1.2,0.4,1.8c0.2,0.6,0.6,1,1,1.5c0.4,0.4,0.9,0.7,1.5,1c0.6,0.2,1.2,0.4,1.8,0.4
		c0.5,0,1-0.1,1.4-0.2c0.4-0.1,0.8-0.3,1.2-0.6c0.1-0.1,0.2-0.1,0.3-0.2c0.1-0.1,0.2-0.2,0.2-0.3l0-0.1v-0.1c0-0.1,0-0.2-0.1-0.3
		c0-0.1-0.1-0.2-0.1-0.3c-0.1-0.1-0.1-0.1-0.2-0.2c-0.1-0.1-0.2-0.1-0.3-0.1c-0.1,0-0.2,0.1-0.3,0.2l-0.2,0.2
		c-0.3,0.2-0.6,0.4-0.9,0.5c-0.7,0.2-1.5,0.2-2.2-0.1c-0.4-0.2-0.7-0.4-1-0.6s-0.5-0.6-0.7-0.9c-0.1-0.3-0.2-0.6-0.3-0.9h6.5
		c0.2,0,0.4,0,0.5-0.1c0.1-0.1,0.3-0.2,0.3-0.6c0-0.6-0.1-1.2-0.3-1.8C167.4,94.2,167.1,93.7,166.7,93.3z M166.6,95.9h-5.8
		c0.1-0.3,0.2-0.6,0.3-0.8c0.2-0.3,0.4-0.6,0.7-0.9c0.3-0.2,0.6-0.4,0.9-0.6c0.7-0.3,1.5-0.3,2.1,0c0.3,0.1,0.6,0.3,0.9,0.6
		c0.3,0.2,0.5,0.5,0.6,0.9C166.4,95.3,166.5,95.6,166.6,95.9z"/>
	<path d="M182.2,96.8c-0.3-0.2-0.5-0.4-0.9-0.6c-0.3-0.2-0.7-0.3-1.2-0.4l-0.3-0.1c-0.2,0-0.3-0.1-0.5-0.2c-0.2-0.1-0.3-0.1-0.5-0.2
		c-0.1-0.1-0.2-0.2-0.3-0.3c-0.1-0.1-0.1-0.3-0.1-0.4c0-0.2,0-0.3,0.1-0.5c0.1-0.1,0.2-0.3,0.3-0.4s0.3-0.2,0.5-0.2
		c0.2-0.1,0.4-0.1,0.6-0.1c0.3,0,0.7,0.1,0.9,0.2c0.1,0.1,0.3,0.2,0.4,0.3l0.3,0.4c0.1,0.1,0.1,0.1,0.1,0.2c0.1,0.2,0.4,0.2,0.6,0
		l0.3-0.2c0.1-0.1,0.1-0.1,0.2-0.2c0-0.1,0.1-0.2,0.1-0.2c0-0.1,0-0.2-0.1-0.3c-0.3-0.6-0.7-1-1.2-1.2c-0.5-0.3-1-0.4-1.6-0.4
		c-0.4,0-0.8,0.1-1.1,0.2c-0.4,0.1-0.7,0.3-0.9,0.5c-0.3,0.2-0.4,0.5-0.6,0.8c-0.1,0.3-0.2,0.7-0.2,1c0,0.3,0.1,0.6,0.2,0.9
		c0.2,0.3,0.4,0.5,0.6,0.7c0.3,0.2,0.5,0.4,0.8,0.5c0.3,0.1,0.6,0.3,0.9,0.4c0.2,0.1,0.5,0.1,0.7,0.2c0.2,0.1,0.4,0.2,0.6,0.3
		c0.2,0.1,0.3,0.3,0.4,0.4c0.1,0.1,0.2,0.3,0.2,0.5c0,0.2-0.1,0.4-0.2,0.5c-0.1,0.2-0.3,0.3-0.4,0.4c-0.2,0.1-0.4,0.2-0.6,0.2
		c-0.4,0.1-0.6,0.1-1,0c-0.2,0-0.3-0.1-0.5-0.2c-0.2-0.1-0.3-0.2-0.4-0.3c-0.1-0.1-0.2-0.3-0.3-0.4l0-0.1c0-0.1-0.1-0.1-0.2-0.2
		c-0.1-0.1-0.3-0.2-0.5-0.1l-0.3,0.1c-0.1,0-0.2,0.1-0.2,0.2c-0.1,0.1-0.1,0.2-0.1,0.3c0,0.1,0,0.1,0,0.2c0.1,0.3,0.3,0.6,0.5,0.8
		c0.2,0.2,0.4,0.4,0.7,0.6c0.3,0.2,0.6,0.3,0.9,0.4c0.3,0.1,0.7,0.1,1,0.1c0.4,0,0.8-0.1,1.2-0.2c0.4-0.1,0.7-0.3,1-0.5
		c0.3-0.2,0.5-0.5,0.7-0.8c0.2-0.3,0.3-0.7,0.3-1.1c0-0.3-0.1-0.7-0.2-0.9C182.6,97.3,182.4,97.1,182.2,96.8z"/>
	<path d="M193.5,93.1c-0.3-0.3-0.7-0.6-1.2-0.8c-0.7-0.3-1.5-0.4-2.3-0.2c-0.3,0.1-0.6,0.2-0.8,0.3c-0.2,0.1-0.5,0.3-0.7,0.5
		c0,0-0.1,0.1-0.1,0.1V89c0-0.1,0-0.2,0-0.3c0-0.1,0-0.2-0.1-0.3c0-0.1-0.1-0.2-0.2-0.3c-0.1-0.1-0.2-0.1-0.4-0.1h-0.3
		c-0.3,0-0.5,0.2-0.5,0.6v12c0,0.3,0.2,0.5,0.6,0.5h0.3c0.2,0,0.3,0,0.4-0.1c0.1-0.1,0.2-0.2,0.2-0.4v-4.8c0-0.3,0.1-0.6,0.2-0.9
		c0.1-0.3,0.3-0.5,0.5-0.7c0.2-0.2,0.5-0.4,0.7-0.5c0.6-0.2,1.3-0.2,1.8,0c0.3,0.1,0.5,0.3,0.7,0.5c0.2,0.2,0.4,0.5,0.5,0.7
		c0.1,0.3,0.2,0.6,0.2,0.9v4.7c0,0.2,0,0.3,0.1,0.4c0.1,0.1,0.2,0.2,0.4,0.2h0.3c0.2,0,0.3,0,0.4-0.1c0.1-0.1,0.2-0.2,0.2-0.4v-4.7
		c0-0.5-0.1-1-0.3-1.5C194.1,93.9,193.9,93.5,193.5,93.1z"/>
	<path d="M206.4,92.2h-0.2c-0.2,0-0.3,0.1-0.4,0.2c-0.1,0.1-0.1,0.2-0.1,0.4l0,0.5c0,0,0,0,0,0c-0.2-0.3-0.5-0.5-0.8-0.7
		c-0.3-0.2-0.6-0.3-1-0.4c-0.9-0.3-2-0.2-2.9,0.2c-0.5,0.2-1,0.6-1.4,1c-0.4,0.4-0.7,0.9-0.9,1.5c-0.2,0.6-0.3,1.2-0.3,1.8
		s0.1,1.2,0.3,1.8c0.2,0.6,0.5,1,0.9,1.4c0.4,0.4,0.9,0.8,1.4,1c0.5,0.2,1.1,0.4,1.7,0.4c0.4,0,0.8,0,1.1-0.1c0.3-0.1,0.7-0.2,1-0.4
		c0.3-0.2,0.5-0.4,0.8-0.7c0,0,0,0,0,0v0.5c0,0.4,0.2,0.6,0.6,0.6h0.3c0.2,0,0.3,0,0.4-0.1c0.1-0.1,0.2-0.2,0.2-0.4v-7.7
		c0-0.2-0.1-0.4-0.2-0.4C206.7,92.3,206.5,92.2,206.4,92.2z M205.5,96.6c0,0.4-0.1,0.9-0.2,1.2c-0.1,0.4-0.3,0.7-0.6,1
		c-0.3,0.3-0.5,0.5-0.9,0.7c-0.7,0.3-1.6,0.3-2.3,0c-0.4-0.2-0.7-0.4-0.9-0.7c-0.3-0.3-0.5-0.6-0.6-1c-0.1-0.4-0.2-0.8-0.2-1.2
		s0.1-0.9,0.2-1.2c0.1-0.4,0.3-0.7,0.6-1c0.3-0.3,0.6-0.5,0.9-0.7c0.4-0.2,0.7-0.3,1.2-0.3c0.4,0,0.8,0.1,1.2,0.2
		c0.4,0.2,0.7,0.4,0.9,0.7c0.3,0.3,0.4,0.6,0.6,1C205.5,95.8,205.5,96.2,205.5,96.6z"/>
	<path d="M223.4,93.9c-0.2-0.4-0.4-0.7-0.7-0.9c-0.3-0.3-0.6-0.5-1-0.6c-0.7-0.3-1.5-0.3-2.2-0.1c-0.3,0.1-0.6,0.2-0.8,0.4
		c-0.2,0.2-0.5,0.4-0.6,0.6c-0.1,0.1-0.2,0.2-0.3,0.4c-0.1-0.1-0.2-0.2-0.3-0.4c-0.2-0.2-0.4-0.4-0.7-0.6c-0.2-0.2-0.5-0.3-0.8-0.4
		c-0.6-0.2-1.3-0.2-1.8,0c-0.2,0.1-0.5,0.2-0.7,0.3c-0.2,0.1-0.4,0.3-0.6,0.4c0,0,0,0,0,0l0-0.4c0-0.2-0.2-0.4-0.4-0.4h-0.5
		c-0.2,0-0.3,0.1-0.4,0.2c-0.1,0.1-0.1,0.2-0.1,0.4v7.8c0,0.3,0.2,0.5,0.6,0.5h0.3c0.3,0,0.5-0.2,0.5-0.5v-4.9
		c0-0.3,0.1-0.5,0.2-0.8c0.1-0.2,0.2-0.5,0.4-0.6c0.2-0.2,0.4-0.3,0.6-0.4c0.5-0.2,1.1-0.2,1.5,0c0.2,0.1,0.4,0.2,0.6,0.4
		c0.2,0.2,0.3,0.4,0.4,0.6c0.1,0.2,0.2,0.5,0.2,0.8v5c0,0.4,0.2,0.6,0.6,0.6h0.3c0.3,0,0.6-0.2,0.6-0.6v-4.5c0-0.1,0-0.3,0-0.4
		c0-0.1,0-0.3,0.1-0.4c0-0.2,0.1-0.4,0.2-0.6c0.1-0.2,0.3-0.4,0.4-0.5c0.2-0.1,0.4-0.3,0.6-0.3c0.5-0.2,1-0.2,1.4,0
		c0.2,0.1,0.4,0.2,0.6,0.4c0.2,0.2,0.3,0.4,0.4,0.6c0.1,0.2,0.1,0.5,0.2,0.8v4.9c0,0.4,0.2,0.6,0.6,0.6h0.3c0.2,0,0.3,0,0.4-0.1
		c0.1-0.1,0.2-0.2,0.2-0.4V96c0-0.3,0-0.6-0.1-0.9C223.7,94.6,223.6,94.2,223.4,93.9z"/>
	<path d="M235.7,93.3c-0.4-0.4-0.8-0.7-1.3-1c-0.5-0.2-1.1-0.4-1.7-0.4c-0.5,0-1,0.1-1.4,0.2c-0.4,0.1-0.7,0.3-1,0.5
		c-0.2,0.1-0.4,0.3-0.6,0.5v-0.3c0-0.4-0.2-0.6-0.6-0.6h-0.3c-0.4,0-0.6,0.2-0.6,0.6v11c0,0.2,0.1,0.3,0.2,0.4
		c0.1,0.1,0.3,0.1,0.4,0.1h0.2c0.2,0,0.4-0.1,0.4-0.2c0.1-0.1,0.2-0.2,0.2-0.4v-4c0,0,0,0.1,0.1,0.1c0.2,0.2,0.4,0.5,0.7,0.7
		c0.3,0.2,0.6,0.3,0.9,0.5c0.3,0.1,0.7,0.2,1.1,0.2c0.6,0,1.1-0.1,1.7-0.4c0.5-0.2,1-0.6,1.3-1c0.4-0.4,0.7-0.9,0.9-1.5
		c0.2-0.6,0.3-1.2,0.3-1.8s-0.1-1.2-0.3-1.8C236.4,94.2,236.1,93.7,235.7,93.3z M235.5,96.5c0,0.4-0.1,0.8-0.2,1.2
		c-0.2,0.4-0.4,0.7-0.6,1c-0.3,0.3-0.6,0.5-0.9,0.7c-0.7,0.3-1.5,0.3-2.2,0c-0.4-0.2-0.7-0.4-0.9-0.7c-0.3-0.3-0.5-0.6-0.6-1
		c-0.2-0.4-0.2-0.8-0.2-1.2c0-0.4,0.1-0.8,0.2-1.2c0.2-0.4,0.4-0.7,0.6-1c0.3-0.3,0.6-0.5,0.9-0.7c0.3-0.2,0.7-0.2,1.1-0.2
		c0.4,0,0.7,0.1,1.1,0.2c0.4,0.2,0.7,0.4,0.9,0.7c0.3,0.3,0.5,0.6,0.6,1C235.4,95.7,235.5,96.1,235.5,96.5z"/>
	<path d="M248.2,93.4c-0.4-0.4-0.9-0.7-1.5-1c-1.1-0.5-2.5-0.5-3.6,0c-0.6,0.2-1,0.6-1.5,1c-0.4,0.4-0.7,0.9-1,1.5
		c-0.2,0.6-0.4,1.2-0.4,1.8c0,0.6,0.1,1.2,0.4,1.8c0.2,0.6,0.6,1,1,1.5c0.4,0.4,0.9,0.7,1.5,1c0.6,0.2,1.2,0.4,1.8,0.4
		c0.6,0,1.2-0.1,1.8-0.4c0.6-0.2,1-0.6,1.5-1c0.4-0.4,0.7-0.9,1-1.5c0.2-0.6,0.4-1.2,0.4-1.8c0-0.6-0.1-1.2-0.4-1.8
		C249,94.3,248.7,93.8,248.2,93.4z M248.2,96.6c0,0.4-0.1,0.9-0.3,1.2c-0.2,0.4-0.4,0.7-0.7,1c-0.3,0.3-0.6,0.5-1,0.7
		c-0.8,0.3-1.7,0.3-2.5,0c-0.4-0.2-0.7-0.4-1-0.7c-0.3-0.3-0.5-0.6-0.7-1c-0.2-0.4-0.3-0.8-0.3-1.2s0.1-0.9,0.3-1.2
		c0.2-0.4,0.4-0.7,0.7-1c0.3-0.3,0.6-0.5,1-0.7c0.4-0.2,0.8-0.3,1.2-0.3c0.4,0,0.8,0.1,1.2,0.3c0.4,0.2,0.7,0.4,1,0.7
		c0.3,0.3,0.5,0.6,0.7,1C248.1,95.8,248.2,96.2,248.2,96.6z"/>
	<path d="M261,93.4c-0.4-0.4-0.9-0.7-1.5-1c-1.1-0.5-2.5-0.5-3.6,0c-0.6,0.2-1,0.6-1.5,1c-0.4,0.4-0.7,0.9-1,1.5
		c-0.2,0.6-0.4,1.2-0.4,1.8c0,0.6,0.1,1.2,0.4,1.8c0.2,0.6,0.6,1,1,1.5c0.4,0.4,0.9,0.7,1.5,1c0.6,0.2,1.2,0.4,1.8,0.4
		c0.6,0,1.2-0.1,1.8-0.4c0.6-0.2,1-0.6,1.5-1c0.4-0.4,0.7-0.9,1-1.5c0.2-0.6,0.4-1.2,0.4-1.8c0-0.6-0.1-1.2-0.4-1.8
		C261.7,94.3,261.4,93.8,261,93.4z M260.9,96.6c0,0.4-0.1,0.9-0.3,1.2c-0.2,0.4-0.4,0.7-0.7,1c-0.3,0.3-0.6,0.5-1,0.7
		c-0.8,0.3-1.7,0.3-2.5,0c-0.4-0.2-0.7-0.4-1-0.7c-0.3-0.3-0.5-0.6-0.7-1c-0.2-0.4-0.3-0.8-0.3-1.2s0.1-0.9,0.3-1.2
		c0.2-0.4,0.4-0.7,0.7-1c0.3-0.3,0.6-0.5,1-0.7c0.4-0.2,0.8-0.3,1.2-0.3c0.4,0,0.8,0.1,1.2,0.3c0.4,0.2,0.7,0.4,1,0.7
		c0.3,0.3,0.5,0.6,0.7,1C260.8,95.8,260.9,96.2,260.9,96.6z"/>
	<rect x="118.3" y="17.6" width="3.6" height="13.9"/>
	<rect x="118.3" y="38.2" width="3.6" height="31.5"/>
	<path d="M82,19.4c7,0,12.7,5.7,12.7,12.7h3.6c0-9-7.3-16.3-16.3-16.3c-6.1,0-11.5,3.4-14.3,8.5c-2.8-5.1-8.2-8.5-14.3-8.5
		c-9,0-16.3,7.3-16.3,16.3h3.6c0-7,5.7-12.7,12.7-12.7c6.3,0,11.5,4.5,12.5,10.6h3.5C70.5,23.8,75.8,19.4,82,19.4z"/>
	<rect x="94.7" y="38.2" width="3.6" height="31.3"/>
	<rect x="37.1" y="38.2" width="3.6" height="31.3"/>
	<rect x="165.6" y="27.1" transform="matrix(0.7076 -0.7066 0.7066 0.7076 32.6748 136.8629)" width="32.2" height="3.6"/>
	<rect x="136.5" y="56.3" transform="matrix(0.7071 -0.7071 0.7071 0.7071 3.6113 124.9065)" width="32.2" height="3.6"/>
	<rect x="150.8" y="12.8" transform="matrix(0.707 -0.7072 0.7072 0.707 24.235 116.3706)" width="3.6" height="32.2"/>
	<polygon points="194.4,68.2 171.6,45.4 169.1,48 191.8,70.7 	"/>
	<rect x="205.3" y="56.3" transform="matrix(0.7072 -0.707 0.707 0.7072 23.7421 173.5159)" width="32.2" height="3.6"/>
	<rect x="219.5" y="12.8" transform="matrix(0.7071 -0.7071 0.7071 0.7071 44.3773 165.0007)" width="3.6" height="32.2"/>
	<rect x="234.4" y="27.1" transform="matrix(0.7074 -0.7068 0.7068 0.7074 52.852 185.5381)" width="32.2" height="3.6"/>
	<rect x="248.7" y="42" transform="matrix(0.7069 -0.7073 0.7073 0.7069 32.3355 194.222)" width="3.6" height="32.2"/>
</g>
</svg>
